<?xml version="1.0" standalone="no"?>
<!DOCTYPE svg PUBLIC "-//W3C//DTD SVG 1.1//EN" "http://www.w3.org/Graphics/SVG/1.1/DTD/svg11.dtd" >
<svg xmlns="http://www.w3.org/2000/svg" xmlns:xlink="http://www.w3.org/1999/xlink" version="1.1">
<metadata>
Created by FontForge 20200511 at Thu Feb 16 01:11:48 2023
 By convertio
</metadata>
<defs>
<font id="Rblxdoorsnewfont-Regular" horiz-adv-x="250" >
  <font-face 
    font-family="Rblxdoorsnewfont"
    font-weight="400"
    font-stretch="normal"
    units-per-em="1000"
    panose-1="2 0 5 3 0 0 0 0 0 0"
    ascent="800"
    descent="-200"
    x-height="569"
    cap-height="554"
    bbox="20 -195 492 800"
    underline-thickness="50"
    underline-position="-100"
    unicode-range="U+000D-00A0"
  />
<missing-glyph horiz-adv-x="364" 
d="M33 0v666h265v-666h-265zM66 33h199v600h-199v-600z" />
    <glyph glyph-name=".notdef" horiz-adv-x="364" 
d="M33 0v666h265v-666h-265zM66 33h199v600h-199v-600z" />
    <glyph glyph-name=".null" 
 />
    <glyph glyph-name=".null" 
 />
    <glyph glyph-name="nonmarkingreturn" horiz-adv-x="333" 
 />
    <glyph glyph-name="CR" unicode="&#xd;" 
 />
    <glyph glyph-name="space" unicode=" " 
 />
    <glyph glyph-name="exclam" unicode="!" horiz-adv-x="196" 
d="M38 581q11 14 32 14q3 0 10 -0.5t12 -0.5l40 -2l18 -31q18 -30 18 -44t-16 -33l-17 -21v-259h-34q-34 0 -38 7q-7 9 -22 133.5t-16 180.5v14q0 28 13 42zM51 140q5 5 22 5q44 0 58 -16q10 -13 10 -53q0 -29 -7 -36q-6 -6 -37 -6q-32 0 -42.5 12t-10.5 49q0 38 7 45z" />
    <glyph glyph-name="quotedbl" unicode="&#x22;" horiz-adv-x="205" 
d="M28 449q6 7 10 7t18 -7q20 -10 26 -15t6 -15q0 -11 -6 -30q-17 -63 -25 -63q-6 0 -11 11t-5 25t-8 30q-11 24 -11 38q0 13 6 19zM121 452q7 9 19 2q40 -21 40 -35q0 -10 -13.5 -51.5t-16.5 -41.5q-7 0 -12 8.5t-5 19.5q0 18 -10 45q-10 32 -10 37q0 8 8 16z" />
    <glyph glyph-name="quotedbl" unicode="&#x201e;" horiz-adv-x="205" 
d="M28 449q6 7 10 7t18 -7q20 -10 26 -15t6 -15q0 -11 -6 -30q-17 -63 -25 -63q-6 0 -11 11t-5 25t-8 30q-11 24 -11 38q0 13 6 19zM121 452q7 9 19 2q40 -21 40 -35q0 -10 -13.5 -51.5t-16.5 -41.5q-7 0 -12 8.5t-5 19.5q0 18 -10 45q-10 32 -10 37q0 8 8 16z" />
    <glyph glyph-name="quotedbl" unicode="&#x201d;" horiz-adv-x="205" 
d="M28 449q6 7 10 7t18 -7q20 -10 26 -15t6 -15q0 -11 -6 -30q-17 -63 -25 -63q-6 0 -11 11t-5 25t-8 30q-11 24 -11 38q0 13 6 19zM121 452q7 9 19 2q40 -21 40 -35q0 -10 -13.5 -51.5t-16.5 -41.5q-7 0 -12 8.5t-5 19.5q0 18 -10 45q-10 32 -10 37q0 8 8 16z" />
    <glyph glyph-name="quotedbl" unicode="&#x201c;" horiz-adv-x="205" 
d="M28 449q6 7 10 7t18 -7q20 -10 26 -15t6 -15q0 -11 -6 -30q-17 -63 -25 -63q-6 0 -11 11t-5 25t-8 30q-11 24 -11 38q0 13 6 19zM121 452q7 9 19 2q40 -21 40 -35q0 -10 -13.5 -51.5t-16.5 -41.5q-7 0 -12 8.5t-5 19.5q0 18 -10 45q-10 32 -10 37q0 8 8 16z" />
    <glyph glyph-name="dollar" unicode="$" horiz-adv-x="416" 
d="M172 542q0 1 -2 13t-4.5 26.5t-2.5 21.5q0 5 1 6q3 4 32 4h19l47 -1v-27v-6q0 -11 0.5 -15.5t2.5 -7t7 -2.5q1 0 23 4q16 2 20 2q13 0 18.5 -7t11.5 -30q7 -24 7 -31q0 -14 -15.5 -20t-64.5 -15q-74 -14 -74 -18q0 -5 87 -54q56 -32 72 -43t18 -20q2 -11 8.5 -131
t7.5 -156v-26l-62 -2l-62 -1l-33 31q-30 27 -36 27h-1q-2 -2 -10 -29q-9 -38 -18 -38q-7 0 -44 25q-43 30 -43 36q0 3 29 40l26 33l-111 111l21 26q2 2 5 6t4.5 5.5t3.5 4.5t3.5 4.5l3.5 3.5t3.5 3l3 2t3 1.5t3.5 1t4 0.5q3 0 6.5 -1t8.5 -3t9 -4t12 -7t14.5 -8.5t18 -10.5
t20.5 -12q92 -56 93 -56t2 3t1.5 8.5t0.5 12.5v25l-92 73q-83 65 -99 81q-4 8 -4 17l4 44q7 55 10 59q4 6 43 11q40 5 40 10z" />
    <glyph glyph-name="percent" unicode="%" horiz-adv-x="373" 
d="M279 461q5 9 10 11.5t20 2.5q26 0 26 -8q0 -9 -21 -39q-21 -29 -36 -59q-7 -16 -74.5 -120t-95.5 -143q-9 -12 -25 -12t-33 10t-17 20q0 12 25 44q79 107 129 190q42 71 57 77q18 7 24 11.5t11 14.5zM90 395q0 12 -2.5 15t-10.5 3t-10.5 -3t-2.5 -15t2.5 -15t10.5 -3
t10.5 3t2.5 15zM48 456q17 9 48 9q19 0 25.5 -2t13.5 -11q11 -14 11 -46q0 -26 -7 -41q-9 -21 -22.5 -28.5t-43.5 -9.5q-4 0 -10 -0.5t-8 -0.5q-20 0 -26 8t-6 35v10q1 42 5 56t20 21zM285 176q7 0 13.5 7.5t6.5 15.5q0 13 -16 13q-13 0 -16 -13q-2 -8 -2 -11q0 -12 14 -12z
M259 261q22 7 45 7q22 0 32 -7q7 -5 9 -13.5t2 -38.5t-2 -38.5t-12 -19.5q-15 -15 -49 -19q-8 -1 -21 -1q-27 0 -36 14t-9 53q0 30 8.5 42.5t32.5 20.5z" />
    <glyph glyph-name="ampersand" unicode="&#x26;" horiz-adv-x="405" 
d="M204 214q-25 40 -30 40q-6 0 -26.5 -24t-20.5 -31q0 -10 14 -33q10 -18 16 -22t26 -6q8 -1 19 -1q13 0 19 9q8 10 8 17q0 11 -25 51zM186 447h-3q-10 0 -26 -6t-18 -10v-2q0 -8 12 -24.5t19 -16.5q9 0 16 10.5t7 24.5q0 22 -7 24zM205 529q19 7 35 7h3q10 -1 15 -7.5
t17 -36.5q17 -41 20 -78l3 -35l-34 -33q-34 -32 -34 -41t14 -23q10 -9 13.5 -10t8.5 5q4 6 19 6q17 0 45 -11l19 -8l-2 -36q-1 -9 -1 -21q0 -16 11 -19q13 -3 17.5 -14.5t4.5 -42.5v-35l-27 -11q-28 -11 -38 -11q-6 0 -9 4q-3 5 -9 5q-12 0 -26 -15q-12 -15 -27 -15
q-12 0 -47 8q-40 8 -61 8q-17 0 -24.5 3t-17.5 14q-15 17 -41 53t-26 45q0 11 19 39q49 73 49 86q0 1 -0.5 3t-0.5 3q-3 12 -26 54.5t-26 50.5q-5 10 -5 18q0 5 10 21q18 27 32.5 35.5t54.5 16.5q54 12 72 18z" />
    <glyph glyph-name="quotesingle" unicode="'" horiz-adv-x="109" 
d="M26 466q4 4 9 4q10 0 30 -14q17 -17 18 -23q0 -10 -1 -17q-4 -33 -14 -59.5t-18 -26.5q-7 0 -7 23t-11 45q-10 23 -10 50q0 14 4 18z" />
    <glyph glyph-name="quotesingle" unicode="&#x201a;" horiz-adv-x="109" 
d="M26 466q4 4 9 4q10 0 30 -14q17 -17 18 -23q0 -10 -1 -17q-4 -33 -14 -59.5t-18 -26.5q-7 0 -7 23t-11 45q-10 23 -10 50q0 14 4 18z" />
    <glyph glyph-name="quotesingle" unicode="&#x2019;" horiz-adv-x="109" 
d="M26 466q4 4 9 4q10 0 30 -14q17 -17 18 -23q0 -10 -1 -17q-4 -33 -14 -59.5t-18 -26.5q-7 0 -7 23t-11 45q-10 23 -10 50q0 14 4 18z" />
    <glyph glyph-name="quotesingle" unicode="&#x2018;" horiz-adv-x="109" 
d="M26 466q4 4 9 4q10 0 30 -14q17 -17 18 -23q0 -10 -1 -17q-4 -33 -14 -59.5t-18 -26.5q-7 0 -7 23t-11 45q-10 23 -10 50q0 14 4 18z" />
    <glyph glyph-name="parenleft" unicode="(" horiz-adv-x="454" 
d="M214 786l11 14h77q75 0 81 -7q7 -9 7 -86q0 -26 -2 -28t-56 -19q-54 -15 -89 -39q-25 -18 -35 -30t-28 -44q-28 -53 -35 -74q-28 -95 -36 -146.5t-8 -137.5q2 -127 21 -158q12 -18 52 -58t61 -55l28 -20l82 -3q60 -3 70.5 -5t10.5 -10q0 -11 -6.5 -29t-12.5 -25
q-18 -20 -129 -21h-73l-48 50q-74 76 -115 151l-19 33l3 142q4 169 7 194q5 49 9 118q3 70 7 87.5t22 39.5q12 14 33 42q6 8 55 61.5t55 62.5z" />
    <glyph glyph-name="parenright" unicode=")" horiz-adv-x="454" 
d="M62 687v113h171l22 -24q19 -24 55 -62q89 -97 94 -127q2 -9 6 -86q15 -261 16 -310l3 -143l-14 -25q-47 -82 -118 -154l-51 -54h-73q-109 1 -128 22q-6 7 -12.5 24.5t-6.5 28.5q0 8 10.5 10t70.5 5l81 4l28 19q21 15 61 55t52 58q8 14 15 47q7 40 7 124q0 65 -5 108
q-15 119 -69 227q-20 38 -29.5 50t-35.5 31q-16 12 -30.5 20t-22.5 10.5t-29 8.5t-33 10z" />
    <glyph glyph-name="plus" unicode="+" horiz-adv-x="283" 
d="M96 382q0 32 5.5 39.5t34.5 7.5q18 0 24 -2.5t12 -11.5q9 -13 11 -41q1 -21 4 -24.5t16 -3.5q16 0 31 -7t19 -16t4 -21q0 -20 -14 -31.5t-37 -11.5h-22v-33q0 -31 -8.5 -42t-33.5 -15q-16 -2 -17 -2q-8 0 -14 10q-6 11 -10 43l-2 31l-31 3q-5 1 -13 1.5t-10.5 1t-7 1.5
t-6 2.5t-3.5 4t-2.5 6.5t-1 9.5t-0.5 13.5q0 31 13 39q11 8 24 8q24 1 29.5 7t5.5 34z" />
    <glyph glyph-name="comma" unicode="," horiz-adv-x="147" 
d="M36 89q3 5 36 5h33l9 -40q9 -40 9 -51q0 -9 -28 -50q-18 -25 -24.5 -32t-12.5 -7q-1 0 -3 0.5t-3 0.5q-29 6 -29 27q0 16 16 33q15 17 15 26q0 8 -13 21q-12 11 -12 23q0 8 1 14q4 27 6 30z" />
    <glyph glyph-name="hyphen" unicode="-" horiz-adv-x="284" 
d="M44 338q13 8 103 8q80 0 94.5 -5t17.5 -34q0 -3 0.5 -7t0.5 -6q0 -20 -20 -25.5t-100 -8.5q-66 -2 -69 -2q-30 0 -38 8q-10 10 -10 31q0 18 3.5 25t17.5 16z" />
    <glyph glyph-name="period" unicode="." horiz-adv-x="153" 
d="M26 68q3 3 16 3q19 0 43.5 -5t29.5 -10q7 -7 13 -41q1 -7 1 -18q0 -20 -9 -28t-31 -8q-2 0 -6.5 0.5t-7.5 0.5q-35 4 -45 14.5t-10 46.5q0 39 6 45z" />
    <glyph glyph-name="slash" unicode="/" horiz-adv-x="362" 
d="M225 492q34 81 41 81q8 0 25.5 -8.5t28.5 -18.5l14 -11l-32 -75q-185 -421 -216 -470l-15 -24l-23 13q-23 12 -23 15q0 17 77 195q26 61 63 155t60 148z" />
    <glyph glyph-name="zero" unicode="0" horiz-adv-x="434" 
d="M260 395q-8 7 -35.5 16.5t-40.5 9.5q-4 0 -6 -2q-4 -5 -9 -94q-7 -104 -9 -139q-2 -28 -2 -34q0 -24 10 -30t45 -6q39 0 49 5q8 5 9 134v46q0 55 -2 71t-9 23zM84 586q6 7 29.5 8.5t112.5 1.5h131l18 -22q14 -17 17 -21t9 -17t7 -28t1 -41q0 -49 -6 -192
q-9 -245 -12 -258q-2 -20 -13 -24q-16 -9 -123 -24q-36 -6 -106 -16q-42 -6 -54 -6q-13 0 -24 10q-16 16 -32 50l-18 36v427l27 52q26 52 36 64z" />
    <glyph glyph-name="one" unicode="1" horiz-adv-x="331" 
d="M155 593q7 5 68 5t68 -5q7 -4 12 -134q5 -165 5 -335q0 -163 -4 -169q-5 -5 -74 -5q-70 0 -75 5q-2 2 -2 27q0 20 4 108q13 242 13 277q0 37 -5 37t-18 -28q-15 -29 -24 -33l-1 -1h-3q-15 0 -49 13t-41 21q-3 3 -3 7q0 8 14 33q32 53 78 127q27 43 37 50z" />
    <glyph glyph-name="two" unicode="2" horiz-adv-x="383" 
d="M206 593q2 5 44 5h25l66 -2l2 -138l1 -138l-16 -21q-16 -22 -33 -30q-48 -25 -66 -45q-14 -18 -22 -18q-7 0 -28.5 -17t-27.5 -28q-4 -10 -4 -13q0 -17 17 -22q2 -1 6 -1q27 0 108 31q24 10 33 10q7 0 15 -6q12 -9 21.5 -40.5t9.5 -60.5q0 -25 -8 -36q-7 -10 -32 -19.5
t-45 -9.5q-18 0 -21 -7q-4 -6 -29 -6q-23 0 -30 -5q-4 -4 -20.5 -9.5t-35.5 -11.5t-23 -7q-13 -5 -41 -5q-35 0 -42 7q-8 8 -8 136q0 94 2 114t12 30q15 15 21 15t46 32q37 32 43 32q9 0 51 40q13 11 15.5 21t2.5 43q0 51 -13.5 60.5t-87.5 9.5h-33q-31 0 -39 4t-8 21
q0 3 0.5 13t0.5 17q2 33 8 41q7 7 83 7q75 0 80 7z" />
    <glyph glyph-name="three" unicode="3" horiz-adv-x="396" 
d="M74 598q3 5 145 5h141l7 -18q5 -13 5 -80v-25l-2 -88l-24 -30q-25 -29 -25 -39q0 -11 22 -37q17 -18 23 -38.5t6 -63.5q0 -14 -2 -68q-3 -101 -9 -134.5t-21 -33.5q-5 0 -8 1q-33 11 -130 22q-131 13 -154 21.5t-23 43.5q0 34 7 62q5 21 9.5 24.5t24.5 3.5q30 -2 49 -13
q48 -25 84 -29q7 -1 17 -1q15 0 24 14q8 11 8 23q0 13 -4 37q-1 6 -6.5 43t-12 55.5t-18.5 18.5q-9 0 -45 18q-13 8 -26 8q-11 0 -18.5 17t-7.5 37q0 21 8 32t53 11q31 0 39.5 2t13.5 12q6 11 6 39v9l-2 31q-26 0 -78.5 -2t-79.5 -2l-1 14v15q0 76 5 83z" />
    <glyph glyph-name="four" unicode="4" horiz-adv-x="424" 
d="M112 562l19 42h89v-32q-2 -39 -9 -58q-9 -25 -9 -41q0 -18 -12 -37q-12 -23 -14 -58l-2 -37h80l2 114q2 105 10 121q9 15 35 15q3 0 10 -0.5t11 -0.5q30 -2 38 -4.5t13 -13.5q9 -20 24 -501q2 -50 2 -60q0 -39 -10 -47.5t-48 -8.5h-10h-7q-49 0 -57.5 14.5t-8.5 96.5v9
v27q0 69 -11 81.5t-69 13.5h-10l-68 2l-23 43q-20 41 -37 55q-14 12 -14 32q0 25 21 68q23 45 26 62q10 39 39 103z" />
    <glyph glyph-name="five" unicode="5" horiz-adv-x="412" 
d="M244 592q30 3 61 4l41 1v-116l-54 -7q-52 -7 -80 -7q-23 0 -30.5 -8.5t-11.5 -38.5q-2 -16 -2 -20q0 -11 12 -15t65 -11q42 -6 53.5 -15t50.5 -68l28 -42l4 -125q5 -132 5 -147q0 -29 -7 -36q-4 -4 -18 -4q-20 0 -69 7q-74 11 -87.5 14.5t-29.5 17.5q-4 4 -15.5 13
t-29 22.5t-28.5 22.5q-51 38 -63.5 50.5t-12.5 29.5q0 4 1 9t2 12.5t2 13.5q13 83 27 83q9 0 59 -34t53 -34q1 0 34 -20t41 -20h2q6 4 6 37v1q0 29 -12 42q-15 18 -127 96l-1 1h-1l-1 1l-16.5 11t-14 9.5t-10 7.5t-8 7.5t-5 6.5t-4 7.5t-1.5 8.5t-1 11q0 4 4 66
q8 100 16 114q7 13 35 18q1 0 4 1h2q22 4 67 10q18 1 35 6t30 6z" />
    <glyph glyph-name="six" unicode="6" horiz-adv-x="436" 
d="M240 171q-28 19 -57 19q-30 0 -39.5 -7.5t-9.5 -32.5q0 -6 2 -30q4 -46 11.5 -60t30.5 -14q6 0 28 2q43 6 52.5 15.5t9.5 47.5v40zM300 613q2 3 22 1q20 -1 28 -18q8 -15 8 -59t-8 -49q-7 -7 -105 -9l-96 -2l-6 -73q-2 -42 -2 -51q0 -25 4 -29q5 -5 106 -25
q103 -21 111 -27q12 -8 36 -149q11 -70 11 -73q0 -5 -1 -9.5t-2 -7.5t-5.5 -8t-7 -7.5l-10.5 -10.5l-12 -12l-42 -42l-117 -7q-67 -4 -98 -4q-28 0 -44 8q-15 8 -22 17.5t-16 34.5q-11 32 -11 90q0 70 4 219q5 268 12 276q8 10 196 20q58 2 67 6z" />
    <glyph glyph-name="seven" unicode="7" horiz-adv-x="447" 
d="M30 594q2 2 25 2q62 0 255 -14q97 -7 105 -13q4 -3 4 -11q0 -19 -29 -113q-38 -120 -53 -172q-30 -101 -68.5 -218.5t-42.5 -122.5q-1 -1 -7 -1q-18 0 -56 9.5t-49 17.5q-7 5 -7 11q0 16 98 302q48 140 48 149t-21 34l-21 23h-82q-81 0 -93 4q-11 4 -11 56t5 57z" />
    <glyph glyph-name="eight" unicode="8" horiz-adv-x="487" 
d="M284 166q-31 17 -71 17q-32 0 -38 -12q-2 -3 -2 -17q0 -27 7 -66t14 -46q6 -6 20 -6q10 0 34 3q46 6 54 12q9 6 9 54v46zM278 507q-10 10 -51 10q-50 0 -59 -10t-10 -65v-28q0 -28 5 -37.5t20 -9.5q4 0 24 2q36 6 58 23l25 19l-1 43q-1 43 -11 53zM214 623q86 6 106 6
q4 0 8 -1h4q18 -3 58 -38q19 -17 24.5 -23t10.5 -17t5 -27q0 -23 -6 -72q-5 -50 -7 -86q-1 -60 -31 -71l-19 -7l19 -5q18 -5 26 -15.5t12 -33.5q3 -21 11 -57q24 -110 24 -135q0 -13 -33 -51t-49 -44q-13 -5 -86 -10.5t-122 -5.5q-21 0 -33 2q-56 11 -72 47q-8 17 -8 74
q0 38 1 65l2 117l32 32l-20 18q-16 13 -19.5 25.5t-10.5 72.5q-12 103 -13 116q-1 9 -1 24q0 45 30 66q24 16 51 22t106 12z" />
    <glyph glyph-name="nine" unicode="9" horiz-adv-x="502" 
d="M322 516q-5 8 -20 8q-19 0 -54 -5q-40 -4 -51.5 -15t-11.5 -44t4 -43t35 -28q32 -18 69 -18q21 0 37 6q15 5 15 22v6q-1 27 -8.5 65t-14.5 46zM177 622q36 2 118 8t122 8h21q26 0 33.5 -13t7.5 -62q0 -14 -1.5 -51.5t-1.5 -59.5q-6 -176 -6 -323q-1 -141 -6 -160
q-6 -21 -28 -23q-6 -1 -16 -1h-22q-52 0 -65 11q-12 9 -12 23q0 7 5 52q5 41 10 117q4 52 7 59q2 7 -6 19q-10 14 -93 24q-27 4 -47 9q-11 3 -67 12q-39 7 -52 17t-18 38q-12 67 -26 134q-8 38 -8 52q0 16 8 27.5t33 36.5l40 40z" />
    <glyph glyph-name="colon" unicode=":" horiz-adv-x="127" 
d="M33 446q4 1 15 1q33 0 44 -9q7 -6 7 -31q0 -29 -8 -35q-4 -4 -19 -4q-32 0 -44 10q-7 6 -7 36q0 20 2 25.5t10 6.5zM30 235q2 2 11 2q14 0 33 -4.5t23 -9.5q5 -7 5 -26v-8l-1 -26l-27 -1q-3 0 -8 -0.5t-7 -0.5q-20 0 -26.5 8.5t-6.5 32.5q0 29 4 33z" />
    <glyph glyph-name="semicolon" unicode=";" horiz-adv-x="148" 
d="M26 452q2 2 14 2q48 0 55 -11q4 -6 4 -33q0 -23 -5.5 -28t-30.5 -5q-26 0 -33.5 7.5t-7.5 33.5q0 31 4 34zM32 266q4 9 9.5 11t28.5 2h33l11 -43q8 -31 8 -43q0 -9 -5 -18q-11 -22 -31 -49t-24 -27q-10 0 -23 6q-11 4 -14 8.5t-3 14.5q0 17 15 35q15 19 15 30q0 9 -12 17
q-13 9 -13 30q0 11 5 26z" />
    <glyph glyph-name="equal" unicode="=" horiz-adv-x="295" 
d="M115 403q92 4 101 4q36 0 42.5 -7t7.5 -35v-12q0 -18 -12 -24q-14 -7 -63.5 -12.5t-96.5 -5.5t-60 7t-13 33q0 31 16.5 40t77.5 12zM134 262q18 1 43 1.5t38.5 1.5t17.5 1h4q27 0 31 -40q2 -16 2 -18q0 -10 -15 -21q-11 -8 -29 -10.5t-85 -4.5q-66 -2 -70 -2q-31 0 -39 8
q-11 9 -11 38q0 14 5 22q10 14 27.5 18t80.5 6z" />
    <glyph glyph-name="question" unicode="?" horiz-adv-x="400" 
d="M99 567q21 21 41 21q22 0 70.5 -10.5t56.5 -17.5q18 -18 59 -68q31 -37 39.5 -49.5t8.5 -23.5q0 -3 -2 -17q-6 -41 -15 -51.5t-49 -23.5q-52 -17 -59 -24q-8 -6 -12 -96l-4 -88h-39q-27 0 -33 3t-12 19q-7 20 -7 45q0 30 12 86q10 48 18 88q4 21 9.5 27t32.5 15
q39 14 39 16q0 6 -14 29q-12 16 -20.5 22t-26.5 8q-14 2 -17 2q-15 0 -58 -31l-44 -34l-20 14q-27 20 -27 32q0 13 24 46q34 45 49 61zM156 68q6 3 22 3q20 0 40.5 -4t23.5 -9q5 -7 5 -38v-8l-2 -37l-39 -2h-11q-30 0 -38 6q-10 8 -10 50q0 36 9 39z" />
    <glyph glyph-name="at" unicode="@" horiz-adv-x="492" 
d="M257 290q9 9 6 14q-5 4 -10.5 -1.5t-5.5 -14.5q0 -8 10 2zM372 341q3 7 0 13.5t-5 0.5q-1 -3 0 -9q0 -9 2 -9q1 0 3 4zM347 409q-21 19 -37 19q-20 -1 -84 -23t-71 -31q-7 -8 -17 -61t-10 -83q0 -48 103 -57q31 -3 50 -3q9 0 9 1q0 2 -9 18q-10 18 -55 22l-48 6l3 69
l2 69l34 17q32 16 84 16q40 0 52 -11q8 -6 11 -6q4 0 4 4q0 15 -21 34zM264 517q27 10 74 12h10q23 0 35 -5t33 -24q30 -27 40.5 -49.5t10.5 -62.5q0 -22 -1 -34q-13 -158 -30 -175q-10 -10 -77 -15q-54 -3 -54 -6t16 -9q31 -13 31 -37q0 -12 -10 -42q-9 -25 -15.5 -31
t-26.5 -6h-13q-41 0 -59 9q-65 24 -82 29l-63 21l-28 60q-29 60 -29 78q0 23 22.5 105.5t32.5 98.5q13 20 35 32t67 25q10 3 28.5 9t32 10t20.5 7z" />
    <glyph glyph-name="A" unicode="A" horiz-adv-x="414" 
d="M247 296q0 9 -14 78t-19 70q-2 1 -5 1q-10 0 -22.5 -7t-17.5 -15q-14 -23 -14 -82q0 -17 1 -25l4 -29h44q29 0 36 1.5t7 7.5zM144 547q3 1 66.5 10t69.5 9h2q14 0 22 -49q8 -52 38 -238t32 -197q13 -75 13 -98q0 -7 -2 -9q-7 -4 -35 -8t-46 -4q-9 0 -10 1q-5 5 -18 82
q-15 79 -17 81q-10 8 -70 8q-21 0 -22 -3q-2 -2 -9 -74t-10 -75q-5 -7 -69 -7q-48 0 -51 5q-1 1 -1 9q0 15 3 36q11 86 26 236.5t15 170.5q0 21 3 27.5t18 19.5q21 16 33 40q12 23 19 27z" />
    <glyph glyph-name="A" unicode="a" horiz-adv-x="414" 
d="M247 296q0 9 -14 78t-19 70q-2 1 -5 1q-10 0 -22.5 -7t-17.5 -15q-14 -23 -14 -82q0 -17 1 -25l4 -29h44q29 0 36 1.5t7 7.5zM144 547q3 1 66.5 10t69.5 9h2q14 0 22 -49q8 -52 38 -238t32 -197q13 -75 13 -98q0 -7 -2 -9q-7 -4 -35 -8t-46 -4q-9 0 -10 1q-5 5 -18 82
q-15 79 -17 81q-10 8 -70 8q-21 0 -22 -3q-2 -2 -9 -74t-10 -75q-5 -7 -69 -7q-48 0 -51 5q-1 1 -1 9q0 15 3 36q11 86 26 236.5t15 170.5q0 21 3 27.5t18 19.5q21 16 33 40q12 23 19 27z" />
    <glyph glyph-name="B" unicode="B" horiz-adv-x="427" 
d="M235 195q-39 9 -65 9q-14 0 -15 -3q-1 -1 -1 -12q0 -9 2 -43q3 -35 5 -42.5t10 -7.5q16 0 58 11t42 15q0 8 -10 38q-7 20 -12 26.5t-14 8.5zM239 428l-12 32h-21q-19 0 -37 -4l-18 -3v-36q0 -34 6 -40q2 -2 10 -2q18 0 50 7t32 11q0 10 -10 35zM35 553q9 6 151 6t151 -6
q6 -5 34.5 -86.5t28.5 -94.5q0 -7 -15 -16t-60 -28q-12 -4 -12 -10q0 -7 26 -20q3 -2 9 -4q21 -10 26 -22q7 -19 12 -148q1 -26 2 -41q2 -44 2 -47q0 -23 -8 -28q-9 -4 -125 -20q-15 -2 -78.5 -14.5t-88.5 -13.5q-16 -2 -21 -2q-21 0 -25 30.5t-8 181.5q-6 200 -9 276
q-2 66 -2 71q0 29 10 36z" />
    <glyph glyph-name="B" unicode="b" horiz-adv-x="427" 
d="M235 195q-39 9 -65 9q-14 0 -15 -3q-1 -1 -1 -12q0 -9 2 -43q3 -35 5 -42.5t10 -7.5q16 0 58 11t42 15q0 8 -10 38q-7 20 -12 26.5t-14 8.5zM239 428l-12 32h-21q-19 0 -37 -4l-18 -3v-36q0 -34 6 -40q2 -2 10 -2q18 0 50 7t32 11q0 10 -10 35zM35 553q9 6 151 6t151 -6
q6 -5 34.5 -86.5t28.5 -94.5q0 -7 -15 -16t-60 -28q-12 -4 -12 -10q0 -7 26 -20q3 -2 9 -4q21 -10 26 -22q7 -19 12 -148q1 -26 2 -41q2 -44 2 -47q0 -23 -8 -28q-9 -4 -125 -20q-15 -2 -78.5 -14.5t-88.5 -13.5q-16 -2 -21 -2q-21 0 -25 30.5t-8 181.5q-6 200 -9 276
q-2 66 -2 71q0 29 10 36z" />
    <glyph glyph-name="C" unicode="C" horiz-adv-x="390" 
d="M35 525q4 8 84 8h67l146 -2l-1 -39q-1 -46 -6.5 -54t-39.5 -8h-14q-49 0 -61 -3q-8 -2 -36 -39l-28 -36l6 -108q5 -94 8 -120l3 -14h90q91 0 97 -5q5 -4 9 -35t4 -60q0 -30 -4 -35q-6 -7 -125 -7h-118l-32 33q-27 29 -45 51l-14 20l3 222q2 218 7 231z" />
    <glyph glyph-name="C" unicode="c" horiz-adv-x="390" 
d="M35 525q4 8 84 8h67l146 -2l-1 -39q-1 -46 -6.5 -54t-39.5 -8h-14q-49 0 -61 -3q-8 -2 -36 -39l-28 -36l6 -108q5 -94 8 -120l3 -14h90q91 0 97 -5q5 -4 9 -35t4 -60q0 -30 -4 -35q-6 -7 -125 -7h-118l-32 33q-27 29 -45 51l-14 20l3 222q2 218 7 231z" />
    <glyph glyph-name="D" unicode="D" horiz-adv-x="406" 
d="M218 395q-28 21 -45 21q-20 0 -26 -6t-6 -130q0 -145 7 -148h1q8 0 52 11l46 15l1 98q0 103 -1 108q-2 9 -29 31zM28 531l5 12h238q36 -35 106 -105l4 -164q2 -106 2 -134q0 -10 -0.5 -19.5t-0.5 -14.5v-6q-3 -12 -60 -46.5t-92 -44.5q-174 -53 -190 -53q-7 0 -10 5
q-7 9 -7 283q0 275 5 287z" />
    <glyph glyph-name="D" unicode="d" horiz-adv-x="406" 
d="M218 395q-28 21 -45 21q-20 0 -26 -6t-6 -130q0 -145 7 -148h1q8 0 52 11l46 15l1 98q0 103 -1 108q-2 9 -29 31zM28 531l5 12h238q36 -35 106 -105l4 -164q2 -106 2 -134q0 -10 -0.5 -19.5t-0.5 -14.5v-6q-3 -12 -60 -46.5t-92 -44.5q-174 -53 -190 -53q-7 0 -10 5
q-7 9 -7 283q0 275 5 287z" />
    <glyph glyph-name="E" unicode="E" horiz-adv-x="336" 
d="M35 532q8 8 129 8q122 0 128 -8q2 -2 2 -13q0 -18 -4 -50q-5 -57 -9 -62q-3 -6 -69 -6t-72 -7q-4 -6 -4 -32v-12l1 -36q22 0 66.5 -2t66.5 -2v-124q-22 0 -66.5 -2t-66.5 -2v-79l80 -2q80 -1 85 -8q7 -9 7 -63l1 -55l-140 -2q-141 0 -145 4q-1 1 -1 79q0 117 1 197
q4 273 10 279z" />
    <glyph glyph-name="E" unicode="e" horiz-adv-x="336" 
d="M35 532q8 8 129 8q122 0 128 -8q2 -2 2 -13q0 -18 -4 -50q-5 -57 -9 -62q-3 -6 -69 -6t-72 -7q-4 -6 -4 -32v-12l1 -36q22 0 66.5 -2t66.5 -2v-124q-22 0 -66.5 -2t-66.5 -2v-79l80 -2q80 -1 85 -8q7 -9 7 -63l1 -55l-140 -2q-141 0 -145 4q-1 1 -1 79q0 117 1 197
q4 273 10 279z" />
    <glyph glyph-name="F" unicode="F" horiz-adv-x="328" 
d="M29 532q6 6 130 6q125 0 132 -7q5 -5 9 -37t4 -59q0 -19 -3 -24q-4 -7 -29 -7q-30 0 -62 7q-18 4 -45 4h-28v-79h63q64 0 69 -5q6 -6 6 -61t-6 -61q-5 -5 -20 -5q-14 0 -25 4q-14 5 -46 8l-36 3v-28q0 -33 7 -120q4 -45 4 -74q0 -20 -3 -23q-5 -7 -59 -7q-55 0 -61 9
q-7 8 -7 302q0 248 6 254z" />
    <glyph glyph-name="F" unicode="f" horiz-adv-x="328" 
d="M29 532q6 6 130 6q125 0 132 -7q5 -5 9 -37t4 -59q0 -19 -3 -24q-4 -7 -29 -7q-30 0 -62 7q-18 4 -45 4h-28v-79h63q64 0 69 -5q6 -6 6 -61t-6 -61q-5 -5 -20 -5q-14 0 -25 4q-14 5 -46 8l-36 3v-28q0 -33 7 -120q4 -45 4 -74q0 -20 -3 -23q-5 -7 -59 -7q-55 0 -61 9
q-7 8 -7 302q0 248 6 254z" />
    <glyph glyph-name="G" unicode="G" horiz-adv-x="441" 
d="M90 526l26 21l104 -2l103 -1l2 -39q0 -4 0.5 -11t0.5 -10q0 -23 -5 -35t-22 -30l-21 -22h-66q-44 0 -56.5 -1.5t-12.5 -8.5q0 -23 10 -166.5t12 -148.5q2 -2 62 -2q62 0 65 8q3 7 3 51q0 75 -5 78q-3 2 -39.5 8.5t-39.5 9.5q-2 2 -2 12q0 11 3 31q7 43 11 48q7 8 40 8h34
h75q14 -19 44 -57l-4 -53q-1 -16 -5.5 -106t-7.5 -121l-3 -33l-143 -2l-143 -1q-13 13 -37 39t-37 39l-1 45q0 44 -2 58q-1 9 -5 177l-4 164l20 16q26 22 46 37z" />
    <glyph glyph-name="G" unicode="g" horiz-adv-x="441" 
d="M90 526l26 21l104 -2l103 -1l2 -39q0 -4 0.5 -11t0.5 -10q0 -23 -5 -35t-22 -30l-21 -22h-66q-44 0 -56.5 -1.5t-12.5 -8.5q0 -23 10 -166.5t12 -148.5q2 -2 62 -2q62 0 65 8q3 7 3 51q0 75 -5 78q-3 2 -39.5 8.5t-39.5 9.5q-2 2 -2 12q0 11 3 31q7 43 11 48q7 8 40 8h34
h75q14 -19 44 -57l-4 -53q-1 -16 -5.5 -106t-7.5 -121l-3 -33l-143 -2l-143 -1q-13 13 -37 39t-37 39l-1 45q0 44 -2 58q-1 9 -5 177l-4 164l20 16q26 22 46 37z" />
    <glyph glyph-name="H" unicode="H" horiz-adv-x="425" 
d="M25 524q4 4 51.5 12.5t61.5 8.5h2l15 -1v-97q0 -96 4 -100q1 -1 13 -1q17 0 27 1q27 3 34 6.5t19 19.5l16 21l-3 70q-1 16 -1 41q0 32 4 36q6 6 35 6t37 -6q5 -4 35 -46l28 -38l-4 -252q-2 -171 -4 -212.5t-8 -45.5q-7 -6 -45 -6t-45 6q-8 6 -14 128q-7 122 -11 126
q-3 3 -43 3h-17l-57 -2l2 -90l1 -91l-20 -32q-21 -31 -37 -35q-15 -3 -33 -3q-23 0 -26 5q-3 4 -10.5 239.5t-7.5 310.5z" />
    <glyph glyph-name="H" unicode="h" horiz-adv-x="425" 
d="M25 524q4 4 51.5 12.5t61.5 8.5h2l15 -1v-97q0 -96 4 -100q1 -1 13 -1q17 0 27 1q27 3 34 6.5t19 19.5l16 21l-3 70q-1 16 -1 41q0 32 4 36q6 6 35 6t37 -6q5 -4 35 -46l28 -38l-4 -252q-2 -171 -4 -212.5t-8 -45.5q-7 -6 -45 -6t-45 6q-8 6 -14 128q-7 122 -11 126
q-3 3 -43 3h-17l-57 -2l2 -90l1 -91l-20 -32q-21 -31 -37 -35q-15 -3 -33 -3q-23 0 -26 5q-3 4 -10.5 239.5t-7.5 310.5z" />
    <glyph glyph-name="I" unicode="I" horiz-adv-x="303" 
d="M42 548q3 6 103 6t106 -6t6 -41q0 -28 -5 -43q-5 -14 -17 -14t-21 -7q-10 -7 -10 -77q0 -8 0.5 -34t0.5 -43q2 -154 5 -191l4 -44l24 -2q23 -2 29.5 -11.5t7.5 -49.5l1 -41h-249l1 44q2 43 7 50t29 7q22 0 26 6q3 5 6 117t3 198q0 69 -2 71q-4 4 -23.5 9t-22.5 10
q-4 4 -7.5 29t-3.5 43q0 10 2 14z" />
    <glyph glyph-name="I" unicode="i" horiz-adv-x="303" 
d="M42 548q3 6 103 6t106 -6t6 -41q0 -28 -5 -43q-5 -14 -17 -14t-21 -7q-10 -7 -10 -77q0 -8 0.5 -34t0.5 -43q2 -154 5 -191l4 -44l24 -2q23 -2 29.5 -11.5t7.5 -49.5l1 -41h-249l1 44q2 43 7 50t29 7q22 0 26 6q3 5 6 117t3 198q0 69 -2 71q-4 4 -23.5 9t-22.5 10
q-4 4 -7.5 29t-3.5 43q0 10 2 14z" />
    <glyph glyph-name="J" unicode="J" horiz-adv-x="489" 
d="M128 542q5 8 22 9.5t111 1.5h126l23 -16q37 -26 44.5 -37.5t7.5 -40.5q0 -34 -6 -38q-5 -3 -40 -7l-35 -3l2 -52q4 -104 8 -179l7 -127l-18 -26q-14 -22 -30 -39q-13 -13 -13 -18q0 -8 -17 -23q-16 -16 -29 -16q-2 0 -20 2q-9 1 -38 4t-43 4q-84 8 -103.5 11.5t-23.5 9.5
q-4 7 -17 58t-18 79q-4 20 4 25q5 4 60 4q44 0 54.5 -5.5t22.5 -35.5q8 -21 17 -32q8 -9 30 -9q17 0 23 7q8 10 8 223q0 133 -5 139q-8 9 -51 12q-46 4 -53 9q-8 6 -13 50q-2 14 -2 32q0 16 5 24z" />
    <glyph glyph-name="J" unicode="j" horiz-adv-x="489" 
d="M128 542q5 8 22 9.5t111 1.5h126l23 -16q37 -26 44.5 -37.5t7.5 -40.5q0 -34 -6 -38q-5 -3 -40 -7l-35 -3l2 -52q4 -104 8 -179l7 -127l-18 -26q-14 -22 -30 -39q-13 -13 -13 -18q0 -8 -17 -23q-16 -16 -29 -16q-2 0 -20 2q-9 1 -38 4t-43 4q-84 8 -103.5 11.5t-23.5 9.5
q-4 7 -17 58t-18 79q-4 20 4 25q5 4 60 4q44 0 54.5 -5.5t22.5 -35.5q8 -21 17 -32q8 -9 30 -9q17 0 23 7q8 10 8 223q0 133 -5 139q-8 9 -51 12q-46 4 -53 9q-8 6 -13 50q-2 14 -2 32q0 16 5 24z" />
    <glyph glyph-name="K" unicode="K" horiz-adv-x="460" 
d="M269 464q0 85 4 85q17 -1 60 -9.5t47 -12.5t13.5 -77.5t9.5 -98.5q0 -8 -72 -69q-73 -62 -73 -66t85 -93q90 -94 90 -105q0 -3 -1 -4q-5 -6 -51 -44t-50 -38q-5 0 -56 56q-42 46 -72 79q-21 21 -25 21q-2 0 -6 -70l-4 -68l-62 -1h-26q-38 0 -40 2q-6 7 -13 391l-3 179
l17 3q36 7 84 7q20 0 21 -2q7 -12 30 -159q6 -32 10 -36q1 -1 2 -1q9 0 41 22l40 24v85z" />
    <glyph glyph-name="K" unicode="k" horiz-adv-x="460" 
d="M269 464q0 85 4 85q17 -1 60 -9.5t47 -12.5t13.5 -77.5t9.5 -98.5q0 -8 -72 -69q-73 -62 -73 -66t85 -93q90 -94 90 -105q0 -3 -1 -4q-5 -6 -51 -44t-50 -38q-5 0 -56 56q-42 46 -72 79q-21 21 -25 21q-2 0 -6 -70l-4 -68l-62 -1h-26q-38 0 -40 2q-6 7 -13 391l-3 179
l17 3q36 7 84 7q20 0 21 -2q7 -12 30 -159q6 -32 10 -36q1 -1 2 -1q9 0 41 22l40 24v85z" />
    <glyph glyph-name="L" unicode="L" horiz-adv-x="400" 
d="M32 556q10 7 82 7q84 0 90 -8q5 -5 7 -55l2 -49q-8 -4 -22 -10t-22 -10l-1 -163q0 -161 7 -164h6q15 0 37 3q112 17 146 17q7 0 8 -1q4 -4 4 -66q0 -91 -6 -99q-7 -7 -124 -7h-117l-34 25q-34 26 -40 34q-7 8 -11.5 70t-12.5 267q-6 141 -6 172q0 33 7 37z" />
    <glyph glyph-name="L" unicode="l" horiz-adv-x="400" 
d="M32 556q10 7 82 7q84 0 90 -8q5 -5 7 -55l2 -49q-8 -4 -22 -10t-22 -10l-1 -163q0 -161 7 -164h6q15 0 37 3q112 17 146 17q7 0 8 -1q4 -4 4 -66q0 -91 -6 -99q-7 -7 -124 -7h-117l-34 25q-34 26 -40 34q-7 8 -11.5 70t-12.5 267q-6 141 -6 172q0 33 7 37z" />
    <glyph glyph-name="M" unicode="M" horiz-adv-x="512" 
d="M323 541q5 11 6 11q3 0 61 -7q61 -7 66 -15q6 -9 9 -88q6 -131 8 -159q14 -238 14 -282q0 -28 -4 -32q-7 -7 -69 -8l-63 -2l-3 80q-1 23 -2.5 63t-1.5 48q0 29 -5 29q-3 0 -34.5 -55t-32.5 -56t-2 -1q-8 0 -37 9q-29 8 -36 19.5t-32 87.5q-14 43 -19 43q-4 0 -4 -128
t-6 -136q-7 -11 -70 -11q-20 0 -26 2l-14 4l3 79q7 166 17 333.5t14 171.5q6 6 63 6q58 0 64 -6q5 -7 20 -127q15 -123 17 -126q5 -5 23 -2q14 3 18 9t11 39q3 11 7 31t10 47t9 42q14 70 21 87z" />
    <glyph glyph-name="M" unicode="m" horiz-adv-x="512" 
d="M323 541q5 11 6 11q3 0 61 -7q61 -7 66 -15q6 -9 9 -88q6 -131 8 -159q14 -238 14 -282q0 -28 -4 -32q-7 -7 -69 -8l-63 -2l-3 80q-1 23 -2.5 63t-1.5 48q0 29 -5 29q-3 0 -34.5 -55t-32.5 -56t-2 -1q-8 0 -37 9q-29 8 -36 19.5t-32 87.5q-14 43 -19 43q-4 0 -4 -128
t-6 -136q-7 -11 -70 -11q-20 0 -26 2l-14 4l3 79q7 166 17 333.5t14 171.5q6 6 63 6q58 0 64 -6q5 -7 20 -127q15 -123 17 -126q5 -5 23 -2q14 3 18 9t11 39q3 11 7 31t10 47t9 42q14 70 21 87z" />
    <glyph glyph-name="N" unicode="N" horiz-adv-x="446" 
d="M27 532q5 9 37 9h26l58 -2l10 -18q3 -6 50.5 -109t50.5 -109q6 -9 20 -9q10 0 17 4t8.5 20t1.5 98q0 112 7 119t51 7q50 0 56 -8q4 -4 4 -49q0 -37 -3 -129q-3 -80 -10 -280q-5 -111 -13 -117q-15 -11 -84 -11q-22 0 -26 3q-7 5 -72 170q-66 166 -73 175l-2 2
q-4 0 -4 -41q0 -4 2 -126l3 -174l-12 -5q-22 -9 -62 -9q-21 0 -24 4q-6 6 -9 149q-6 228 -8 284q-3 74 -3 110t3 42z" />
    <glyph glyph-name="N" unicode="n" horiz-adv-x="446" 
d="M27 532q5 9 37 9h26l58 -2l10 -18q3 -6 50.5 -109t50.5 -109q6 -9 20 -9q10 0 17 4t8.5 20t1.5 98q0 112 7 119t51 7q50 0 56 -8q4 -4 4 -49q0 -37 -3 -129q-3 -80 -10 -280q-5 -111 -13 -117q-15 -11 -84 -11q-22 0 -26 3q-7 5 -72 170q-66 166 -73 175l-2 2
q-4 0 -4 -41q0 -4 2 -126l3 -174l-12 -5q-22 -9 -62 -9q-21 0 -24 4q-6 6 -9 149q-6 228 -8 284q-3 74 -3 110t3 42z" />
    <glyph glyph-name="O" unicode="O" horiz-adv-x="494" 
d="M327 379q-4 9 -60 9h-56l-26 -31q-24 -29 -24 -41q0 -6 1 -9q3 -18 7 -97q4 -80 9 -85q5 -6 50.5 -18.5t62.5 -12.5q15 0 20 7q4 5 10.5 108t6.5 151q0 17 -1 19zM116 535q8 5 170 5q128 0 133 -4q6 -3 29 -45l23 -41l-7 -201l-6 -201q-20 -37 -62 -109l-140 -4
q-75 -3 -125 -3q-26 0 -28 1q-14 4 -37 40q-1 2 -4 6q-17 25 -21.5 59t-10.5 193q0 23 -1 36q-4 110 -4 119q0 39 5.5 50t22.5 17q12 4 19.5 12t17.5 29q18 36 26 41z" />
    <glyph glyph-name="P" unicode="P" horiz-adv-x="447" 
d="M275 393q0 15 -35 15h-27q-45 0 -51 -8q-5 -7 -5 -35v-13l2 -40l37 -2h11q27 0 37 4q7 4 19 34.5t12 44.5zM275 544q12 3 21 3q13 0 26 -10.5t46 -43.5q52 -55 52 -65q0 -6 -12 -38.5t-25 -66t-27 -68.5l-14 -35q-7 -20 -13.5 -26.5t-24.5 -6.5q-13 0 -37 3q-70 8 -73 8
q-21 4 -26 -6q-3 -4 -3 -49q0 -18 2 -72q3 -60 3 -87q0 -26 -4 -30q-6 -8 -65 -8q-58 0 -64 8q-6 6 -9 233l-3 226l26 27q28 28 37 51q11 24 17 30q9 7 85 14q18 2 39 4t32.5 3.5t13.5 1.5z" />
    <glyph glyph-name="P" unicode="p" horiz-adv-x="447" 
d="M275 393q0 15 -35 15h-27q-45 0 -51 -8q-5 -7 -5 -35v-13l2 -40l37 -2h11q27 0 37 4q7 4 19 34.5t12 44.5zM275 544q12 3 21 3q13 0 26 -10.5t46 -43.5q52 -55 52 -65q0 -6 -12 -38.5t-25 -66t-27 -68.5l-14 -35q-7 -20 -13.5 -26.5t-24.5 -6.5q-13 0 -37 3q-70 8 -73 8
q-21 4 -26 -6q-3 -4 -3 -49q0 -18 2 -72q3 -60 3 -87q0 -26 -4 -30q-6 -8 -65 -8q-58 0 -64 8q-6 6 -9 233l-3 226l26 27q28 28 37 51q11 24 17 30q9 7 85 14q18 2 39 4t32.5 3.5t13.5 1.5z" />
    <glyph glyph-name="Q" unicode="Q" horiz-adv-x="445" 
d="M284 436q-9 3 -51 3q-35 0 -51 -3q-19 -3 -23 -19t-6 -83q0 -9 -0.5 -25t-0.5 -23q0 -43 3 -52q3 -12 9.5 -16t31.5 -11q40 -10 60 -10q16 0 21 2t8 10q4 9 9 84.5t5 112.5q0 14 -1 16q-3 11 -14 14zM67 526l34 33q46 0 137 -1.5t136 -2.5l10 -12q17 -23 24 -37l13 -23
l-3 -90q-7 -174 -10.5 -206.5t-20.5 -59.5q-19 -32 -33.5 -42.5t-37.5 -10.5q-25 0 -30 -10q-3 -6 -3 -10q0 -15 49 -18q33 -2 42.5 -9.5t9.5 -33.5q0 -28 -13.5 -35t-71.5 -10q-15 -1 -38 -1q-30 0 -43 8t-36 37q-20 27 -20 45q0 37 -49 37q-22 0 -35.5 10.5t-29.5 40.5
q-8 16 -10 39t-5 130q-4 145 -7 150t2 27q7 23 39 55z" />
    <glyph glyph-name="Q" unicode="q" horiz-adv-x="445" 
d="M284 436q-9 3 -51 3q-35 0 -51 -3q-19 -3 -23 -19t-6 -83q0 -9 -0.5 -25t-0.5 -23q0 -43 3 -52q3 -12 9.5 -16t31.5 -11q40 -10 60 -10q16 0 21 2t8 10q4 9 9 84.5t5 112.5q0 14 -1 16q-3 11 -14 14zM67 526l34 33q46 0 137 -1.5t136 -2.5l10 -12q17 -23 24 -37l13 -23
l-3 -90q-7 -174 -10.5 -206.5t-20.5 -59.5q-19 -32 -33.5 -42.5t-37.5 -10.5q-25 0 -30 -10q-3 -6 -3 -10q0 -15 49 -18q33 -2 42.5 -9.5t9.5 -33.5q0 -28 -13.5 -35t-71.5 -10q-15 -1 -38 -1q-30 0 -43 8t-36 37q-20 27 -20 45q0 37 -49 37q-22 0 -35.5 10.5t-29.5 40.5
q-8 16 -10 39t-5 130q-4 145 -7 150t2 27q7 23 39 55z" />
    <glyph glyph-name="R" unicode="R" horiz-adv-x="455" 
d="M213 439q-23 0 -43 3q-3 0 -6.5 0.5t-5.5 1t-4 0.5q-8 0 -12 -10q-10 -28 -10 -96q0 -18 2 -19q5 -3 20 4q7 3 17 7.5t13.5 6.5t9.5 7.5t10.5 13.5t11.5 21q17 35 17 48q0 12 -20 12zM157 568q52 9 61 9q12 0 24 -6t20 -12.5t37 -31.5q45 -38 57.5 -51t12.5 -22
q0 -8 -6 -18q-22 -40 -52 -99l-41 -79l46 -60q40 -51 76 -98t36 -52q0 -4 -10 -12q-19 -17 -80 -51l-23 -12l-32 33q-7 8 -33 35.5t-38 40.5l-40 44l-3 -23q-1 -5 -1.5 -17.5t-1.5 -32.5t-2 -31q-4 -60 -12 -66q-11 -7 -56 -7q-47 0 -55.5 9t-8.5 58q0 71 -5 286
q-3 128 -3 183q0 56 3 59q6 7 40 11q50 5 90 13z" />
    <glyph glyph-name="R" unicode="r" horiz-adv-x="455" 
d="M213 439q-23 0 -43 3q-3 0 -6.5 0.5t-5.5 1t-4 0.5q-8 0 -12 -10q-10 -28 -10 -96q0 -18 2 -19q5 -3 20 4q7 3 17 7.5t13.5 6.5t9.5 7.5t10.5 13.5t11.5 21q17 35 17 48q0 12 -20 12zM157 568q52 9 61 9q12 0 24 -6t20 -12.5t37 -31.5q45 -38 57.5 -51t12.5 -22
q0 -8 -6 -18q-22 -40 -52 -99l-41 -79l46 -60q40 -51 76 -98t36 -52q0 -4 -10 -12q-19 -17 -80 -51l-23 -12l-32 33q-7 8 -33 35.5t-38 40.5l-40 44l-3 -23q-1 -5 -1.5 -17.5t-1.5 -32.5t-2 -31q-4 -60 -12 -66q-11 -7 -56 -7q-47 0 -55.5 9t-8.5 58q0 71 -5 286
q-3 128 -3 183q0 56 3 59q6 7 40 11q50 5 90 13z" />
    <glyph glyph-name="S" unicode="S" horiz-adv-x="465" 
d="M267 555q73 11 90 11q11 0 17 -6q7 -7 16 -44q6 -26 6 -33t-5 -12q-6 -6 -71 -19q-70 -14 -83.5 -17.5t-13.5 -8.5q0 -4 90 -54q91 -48 99 -58q8 -9 20 -186q8 -130 8 -162q0 -18 -2 -20q-4 -7 -69 -7q-58 0 -70 6q-14 7 -58 53q-38 38 -130 126q-84 80 -84 85q0 6 13 19
q13 11 26 32q13 19 21 19q6 0 106 -59t103 -59q5 0 3 26l-1 28l-111 85q-96 75 -106 87q-7 10 -7 18q0 20 7.5 66.5t11.5 50.5q7 7 174 33z" />
    <glyph glyph-name="S" unicode="s" horiz-adv-x="465" 
d="M267 555q73 11 90 11q11 0 17 -6q7 -7 16 -44q6 -26 6 -33t-5 -12q-6 -6 -71 -19q-70 -14 -83.5 -17.5t-13.5 -8.5q0 -4 90 -54q91 -48 99 -58q8 -9 20 -186q8 -130 8 -162q0 -18 -2 -20q-4 -7 -69 -7q-58 0 -70 6q-14 7 -58 53q-38 38 -130 126q-84 80 -84 85q0 6 13 19
q13 11 26 32q13 19 21 19q6 0 106 -59t103 -59q5 0 3 26l-1 28l-111 85q-96 75 -106 87q-7 10 -7 18q0 20 7.5 66.5t11.5 50.5q7 7 174 33z" />
    <glyph glyph-name="T" unicode="T" horiz-adv-x="432" 
d="M169 547q99 7 176 10h19q18 0 23 -2.5t8 -11.5q10 -25 10 -79q0 -22 -4 -28q-5 -7 -56 -11q-52 -4 -60 -10q-6 -5 -6 -49q0 -43 7.5 -177t7.5 -179q0 -47 -5 -52q-8 -9 -61 -9q-52 0 -64 6q-4 2 -5.5 5t-2.5 16t-1.5 37.5t-0.5 70.5v105v95q0 135 -2 139q-3 5 -18 5
q-16 0 -53 -6q-21 -3 -32 -3q-16 0 -20 11t-4 50q0 50 6 54t138 13z" />
    <glyph glyph-name="T" unicode="t" horiz-adv-x="432" 
d="M169 547q99 7 176 10h19q18 0 23 -2.5t8 -11.5q10 -25 10 -79q0 -22 -4 -28q-5 -7 -56 -11q-52 -4 -60 -10q-6 -5 -6 -49q0 -43 7.5 -177t7.5 -179q0 -47 -5 -52q-8 -9 -61 -9q-52 0 -64 6q-4 2 -5.5 5t-2.5 16t-1.5 37.5t-0.5 70.5v105v95q0 135 -2 139q-3 5 -18 5
q-16 0 -53 -6q-21 -3 -32 -3q-16 0 -20 11t-4 50q0 50 6 54t138 13z" />
    <glyph glyph-name="U" unicode="U" horiz-adv-x="465" 
d="M311 534q9 9 43 9q30 0 39 -7t31 -46l19 -35l-2 -186l-1 -186l-44 -42q-49 -47 -71 -66l-27 -25h-149l-62 57q-45 42 -53.5 52.5t-8.5 26.5q0 109 -1 218v65q0 133 5 140q4 5 53 13q7 1 16 2l13.5 1.5t8.5 0.5q10 0 15 -5q8 -8 13 -187q8 -186 8 -188q5 -9 42 -28l39 -20
l33 16q32 15 36 30q2 8 2 63q0 33 -2 135q-2 114 -2 124q0 61 7 68z" />
    <glyph glyph-name="U" unicode="u" horiz-adv-x="465" 
d="M311 534q9 9 43 9q30 0 39 -7t31 -46l19 -35l-2 -186l-1 -186l-44 -42q-49 -47 -71 -66l-27 -25h-149l-62 57q-45 42 -53.5 52.5t-8.5 26.5q0 109 -1 218v65q0 133 5 140q4 5 53 13q7 1 16 2l13.5 1.5t8.5 0.5q10 0 15 -5q8 -8 13 -187q8 -186 8 -188q5 -9 42 -28l39 -20
l33 16q32 15 36 30q2 8 2 63q0 33 -2 135q-2 114 -2 124q0 61 7 68z" />
    <glyph glyph-name="V" unicode="V" horiz-adv-x="480" 
d="M326 562q3 6 12 6q8 0 53 -6q49 -5 56 -11q6 -5 6 -20q0 -22 -10 -59q-17 -65 -38 -164q-5 -28 -32.5 -138.5t-32.5 -140.5q-6 -35 -14 -57q-5 -19 -9 -23.5t-14 -4.5q-22 0 -74.5 9t-57.5 14q-7 7 -27 94q-28 121 -50 203q-18 63 -37 149q-23 95 -27 105q-6 15 -2 27
l3 14l53 -3q56 -4 61 -6q8 -3 13.5 -21.5t30.5 -130.5q41 -185 50 -185q3 0 8 11t31 135q40 190 48 203z" />
    <glyph glyph-name="V" unicode="v" horiz-adv-x="480" 
d="M326 562q3 6 12 6q8 0 53 -6q49 -5 56 -11q6 -5 6 -20q0 -22 -10 -59q-17 -65 -38 -164q-5 -28 -32.5 -138.5t-32.5 -140.5q-6 -35 -14 -57q-5 -19 -9 -23.5t-14 -4.5q-22 0 -74.5 9t-57.5 14q-7 7 -27 94q-28 121 -50 203q-18 63 -37 149q-23 95 -27 105q-6 15 -2 27
l3 14l53 -3q56 -4 61 -6q8 -3 13.5 -21.5t30.5 -130.5q41 -185 50 -185q3 0 8 11t31 135q40 190 48 203z" />
    <glyph glyph-name="W" unicode="W" horiz-adv-x="519" 
d="M421 544q42 2 46 2q18 0 21.5 -4t3.5 -20q0 -32 -14 -169q-4 -37 -14 -135.5t-14 -132.5q-11 -114 -16 -119q-4 -4 -43.5 -10t-57.5 -6q-7 0 -8 1q-3 3 -21 98q-4 21 -9.5 50.5t-9 49t-5.5 27.5q-5 33 -12 35h-1q-6 0 -42 -132q-24 -89 -30 -105l-8 -26l-44 -7
q-6 -1 -12.5 -1.5t-10 -1t-7.5 -1t-6 -0.5q-8 0 -14 4q-7 9 -27 197q-19 178 -31 283q-9 76 -9 91l1 5q1 2 40 4l36 2q44 -44 66 -65v-93q0 -94 4 -99l1 -1q6 0 26 51q17 43 22.5 51.5t21.5 15.5q19 9 43 16q14 4 16 4q8 0 13 -10.5t18 -50.5q26 -80 33 -80q1 0 3 3
q4 6 4 101v37q0 131 4 135t43 6z" />
    <glyph glyph-name="W" unicode="w" horiz-adv-x="519" 
d="M421 544q42 2 46 2q18 0 21.5 -4t3.5 -20q0 -32 -14 -169q-4 -37 -14 -135.5t-14 -132.5q-11 -114 -16 -119q-4 -4 -43.5 -10t-57.5 -6q-7 0 -8 1q-3 3 -21 98q-4 21 -9.5 50.5t-9 49t-5.5 27.5q-5 33 -12 35h-1q-6 0 -42 -132q-24 -89 -30 -105l-8 -26l-44 -7
q-6 -1 -12.5 -1.5t-10 -1t-7.5 -1t-6 -0.5q-8 0 -14 4q-7 9 -27 197q-19 178 -31 283q-9 76 -9 91l1 5q1 2 40 4l36 2q44 -44 66 -65v-93q0 -94 4 -99l1 -1q6 0 26 51q17 43 22.5 51.5t21.5 15.5q19 9 43 16q14 4 16 4q8 0 13 -10.5t18 -50.5q26 -80 33 -80q1 0 3 3
q4 6 4 101v37q0 131 4 135t43 6z" />
    <glyph glyph-name="X" unicode="X" horiz-adv-x="485" 
d="M77 545q4 2 24 4.5t41.5 4.5t25.5 3h1q19 0 44 -91q16 -57 23.5 -74.5t15.5 -17.5q10 0 18.5 16.5t25.5 68.5q22 68 34.5 80.5t57.5 12.5q36 0 48.5 -4t12.5 -16q0 -7 -29 -80.5t-43 -102.5q-18 -38 -23 -55q-7 -19 -7 -26q0 -3 0.5 -7t2 -9.5t3 -10l4.5 -13.5t5.5 -16
t8 -20.5t9.5 -24t11.5 -30t13.5 -34.5q17 -45 51 -123q3 -4 3 -10q0 -17 -61 -27q-49 -8 -52 -10q-4 -2 -6 -2q-15 0 -29 50q-33 113 -38 143q-2 12 -6 14.5t-18 2.5h-21l-30 -77q-25 -62 -43 -99q-7 -13 -11.5 -17t-14.5 -4q-2 0 -6.5 0.5t-7.5 0.5q-29 2 -54.5 9t-30.5 15
q-5 11 4 24q1 2 31 59t37 67q16 25 35 61l25 48l-16 55q-5 18 -17.5 55.5l-13.5 40.5q-46 137 -46 154q0 9 8 12z" />
    <glyph glyph-name="X" unicode="x" horiz-adv-x="485" 
d="M77 545q4 2 24 4.5t41.5 4.5t25.5 3h1q19 0 44 -91q16 -57 23.5 -74.5t15.5 -17.5q10 0 18.5 16.5t25.5 68.5q22 68 34.5 80.5t57.5 12.5q36 0 48.5 -4t12.5 -16q0 -7 -29 -80.5t-43 -102.5q-18 -38 -23 -55q-7 -19 -7 -26q0 -3 0.5 -7t2 -9.5t3 -10l4.5 -13.5t5.5 -16
t8 -20.5t9.5 -24t11.5 -30t13.5 -34.5q17 -45 51 -123q3 -4 3 -10q0 -17 -61 -27q-49 -8 -52 -10q-4 -2 -6 -2q-15 0 -29 50q-33 113 -38 143q-2 12 -6 14.5t-18 2.5h-21l-30 -77q-25 -62 -43 -99q-7 -13 -11.5 -17t-14.5 -4q-2 0 -6.5 0.5t-7.5 0.5q-29 2 -54.5 9t-30.5 15
q-5 11 4 24q1 2 31 59t37 67q16 25 35 61l25 48l-16 55q-5 18 -17.5 55.5l-13.5 40.5q-46 137 -46 154q0 9 8 12z" />
    <glyph glyph-name="Y" unicode="Y" horiz-adv-x="425" 
d="M350 371q0 -9 -5 -15.5t-5 -16.5q0 -14 -4 -16t-17 -46q-6 -17 -13.5 -37.5t-9 -23.5t-3.5 -23.5t-2 -36.5v-65v-13q0 -124 -6 -130t-23 -6q-15 0 -15 5t-34 5t-34 5q0 4 -11 6l-12 2l1 93q0 36 4 140l3 47l-24 51q-26 57 -30 70q-4 16 -16 37q-36 63 -40 80
q-1 5 -8 21.5t-12.5 34t-5.5 28.5t5 16q6 6 67 6q54 0 65 -6t21 -40q9 -28 13 -30t4 -14q0 -6 10 -30t10 -29q0 -7 7.5 -22t11.5 -15t12 23.5t8 34.5q0 7 5 13.5t5 14.5q0 12 4 14q5 2 5 21q0 16 9 36l8 17l40 1h14q27 0 37 -9q9 -8 9 -18q0 -7 -1 -12q-1 -17 -4.5 -30.5
t-9 -30.5t-9.5 -31q-8 -34 -17 -51q-7 -14 -7 -25z" />
    <glyph glyph-name="Y" unicode="y" horiz-adv-x="425" 
d="M350 371q0 -9 -5 -15.5t-5 -16.5q0 -14 -4 -16t-17 -46q-6 -17 -13.5 -37.5t-9 -23.5t-3.5 -23.5t-2 -36.5v-65v-13q0 -124 -6 -130t-23 -6q-15 0 -15 5t-34 5t-34 5q0 4 -11 6l-12 2l1 93q0 36 4 140l3 47l-24 51q-26 57 -30 70q-4 16 -16 37q-36 63 -40 80
q-1 5 -8 21.5t-12.5 34t-5.5 28.5t5 16q6 6 67 6q54 0 65 -6t21 -40q9 -28 13 -30t4 -14q0 -6 10 -30t10 -29q0 -7 7.5 -22t11.5 -15t12 23.5t8 34.5q0 7 5 13.5t5 14.5q0 12 4 14q5 2 5 21q0 16 9 36l8 17l40 1h14q27 0 37 -9q9 -8 9 -18q0 -7 -1 -12q-1 -17 -4.5 -30.5
t-9 -30.5t-9.5 -31q-8 -34 -17 -51q-7 -14 -7 -25z" />
    <glyph glyph-name="Z" unicode="Z" horiz-adv-x="451" 
d="M69 572q9 6 20 6q16 0 56 -4q12 -1 34 -3t51.5 -5t44.5 -4q79 -7 84 -14q6 -6 19 -69q10 -49 10 -60q0 -10 -5 -16q-4 -6 -16.5 -18t-16.5 -22q-7 -14 -38.5 -37.5t-68.5 -42.5q-44 -24 -73 -51q-38 -35 -38 -67q0 -13 2 -21q3 -16 6 -20t12 -5h3q13 0 49 8
q145 39 173 39h1q7 -2 26.5 -43t19.5 -52q0 -6 -19 -16.5t-94 -48.5l-38 -19l-70 -35q-18 -9 -33 -9t-51 9q-93 24 -93 69q0 3 2 13q5 25 5 138v120l16 16q16 16 19 16q5 0 66 41q94 65 97 70q0 3 -3 4q-7 7 -80 14q-100 12 -101 24v10q0 24 7 51.5t15 33.5z" />
    <glyph glyph-name="Z" unicode="z" horiz-adv-x="451" 
d="M69 572q9 6 20 6q16 0 56 -4q12 -1 34 -3t51.5 -5t44.5 -4q79 -7 84 -14q6 -6 19 -69q10 -49 10 -60q0 -10 -5 -16q-4 -6 -16.5 -18t-16.5 -22q-7 -14 -38.5 -37.5t-68.5 -42.5q-44 -24 -73 -51q-38 -35 -38 -67q0 -13 2 -21q3 -16 6 -20t12 -5h3q13 0 49 8
q145 39 173 39h1q7 -2 26.5 -43t19.5 -52q0 -6 -19 -16.5t-94 -48.5l-38 -19l-70 -35q-18 -9 -33 -9t-51 9q-93 24 -93 69q0 3 2 13q5 25 5 138v120l16 16q16 16 19 16q5 0 66 41q94 65 97 70q0 3 -3 4q-7 7 -80 14q-100 12 -101 24v10q0 24 7 51.5t15 33.5z" />
    <glyph glyph-name="o" unicode="o" horiz-adv-x="472" 
d="M295 58q24 0 31 7t7 31q0 19 -6 29t-39 43l-45 45h-65q-66 0 -74 -7t-14 -47q-3 -24 -3 -41q0 -48 31 -63q10 -6 26 -6q1 0 57 4q62 5 94 5zM382 264q-14 11 -26 11l-22 -8q-11 -7 -11 -22q0 -26 30 -42q5 -3 11 -3q11 0 20 10t10 25v6q0 12 -12 23zM353 476q-7 5 -114 5
h-106l-11 -13q-12 -16 -21 -51.5t-9 -66.5q0 -20 4 -31q5 -16 22.5 -32t31.5 -20q2 -1 9 -1q17 0 112 22q12 3 59 14q23 6 30.5 14t7.5 34q0 18 -3 51q-6 71 -12 75zM108 563q6 6 131 6q90 0 110 -2t32 -10q23 -16 33.5 -27.5t20.5 -30.5q12 -23 12 -56v-21q-1 -38 -4 -70
t-7.5 -74t-7.5 -73q-9 -90 -14 -128q-4 -37 -8 -46t-19 -23q-28 -23 -51.5 -27.5t-127.5 -4.5h-126l-16 13q-15 11 -29 36l-13 21l1 237l2 237l37 18q36 17 44 25z" />
    <glyph glyph-name="nbsp" unicode="&#xa0;" 
 />
  </font>
</defs>
</svg>
